ISO-10303-21;
HEADER;
FILE_DESCRIPTION (( 'STEP AP214' ),
    '1' );
FILE_NAME ('office_building.STEP',
    '2026-05-21T13:12:44',
    ( '' ),
    ( '' ),
    'SwSTEP 2.0',
    'SolidWorks 2019',
    '' );
FILE_SCHEMA (( 'AUTOMOTIVE_DESIGN' ));
ENDSEC;

DATA;
#1 = EDGE_LOOP ( 'NONE', ( #62, #154, #297, #518 ) ) ;
#2 = DIRECTION ( 'NONE',  ( -0.9927156884694656735, -0.1204805455938628284, 0.000000000000000000 ) ) ;
#3 = DIRECTION ( 'NONE',  ( 0.000000000000000000, 0.000000000000000000, -1.000000000000000000 ) ) ;
#4 = CARTESIAN_POINT ( 'NONE',  ( -10.76192636560787008, 40.16405598376294961, 35.00000000000000000 ) ) ;
#5 = CARTESIAN_POINT ( 'NONE',  ( 11.77785401211548155, 14.00000000000000000, 35.00000000000000000 ) ) ;
#6 = CARTESIAN_POINT ( 'NONE',  ( 74.00000000000000000, 50.45115354123182527, 0.000000000000000000 ) ) ;
#7 = VECTOR ( 'NONE', #2, 999.9999999999998863 ) ;
#8 = DIRECTION ( 'NONE',  ( 1.000000000000000000, 0.000000000000000000, 0.000000000000000000 ) ) ;
#9 = LINE ( 'NONE', #142, #492 ) ;
#10 = FILL_AREA_STYLE ('',( #56 ) ) ;
#11 = ORIENTED_EDGE ( 'NONE', *, *, #350, .T. ) ;
#12 = LINE ( 'NONE', #270, #235 ) ;
#13 = VECTOR ( 'NONE', #428, 1000.000000000000000 ) ;
#14 = EDGE_LOOP ( 'NONE', ( #555, #135, #77, #18 ) ) ;
#15 = LINE ( 'NONE', #430, #425 ) ;
#16 = ORIENTED_EDGE ( 'NONE', *, *, #47, .T. ) ;
#17 = DIRECTION ( 'NONE',  ( -0.5112511777420102321, -0.6077097305693762719, -0.6077097305693761609 ) ) ;
#18 = ORIENTED_EDGE ( 'NONE', *, *, #212, .T. ) ;
#19 = EDGE_CURVE ( 'NONE', #239, #360, #583, .T. ) ;
#20 = DIRECTION ( 'NONE',  ( 0.6590688197711045415, 0.1765969580142036366, -0.7310552682428689275 ) ) ;
#21 = AXIS2_PLACEMENT_3D ( 'NONE', #444, #491, #312 ) ;
#22 = ORIENTED_EDGE ( 'NONE', *, *, #338, .F. ) ;
#23 = CARTESIAN_POINT ( 'NONE',  ( 60.00000000000000000, 14.00000000000000000, 0.000000000000000000 ) ) ;
#24 = AXIS2_PLACEMENT_3D ( 'NONE', #536, #128, #310 ) ;
#25 = ADVANCED_FACE ( 'NONE', ( #259 ), #227, .F. ) ;
#26 = ORIENTED_EDGE ( 'NONE', *, *, #515, .T. ) ;
#27 = CARTESIAN_POINT ( 'NONE',  ( -10.76192636560787008, 40.16405598376294961, 0.000000000000000000 ) ) ;
#28 = EDGE_CURVE ( 'NONE', #431, #215, #404, .T. ) ;
#29 = ORIENTED_EDGE ( 'NONE', *, *, #166, .T. ) ;
#30 = CARTESIAN_POINT ( 'NONE',  ( 5.062363611953755616, 39.06255137114444409, 0.000000000000000000 ) ) ;
#31 = ORIENTED_EDGE ( 'NONE', *, *, #333, .F. ) ;
#32 = VECTOR ( 'NONE', #104, 1000.000000000000000 ) ;
#33 = FACE_BOUND ( 'NONE', #133, .T. ) ;
#34 = CARTESIAN_POINT ( 'NONE',  ( 74.00000000000000000, -9.842959747974662735E-17, 35.00000000000000000 ) ) ;
#35 = AXIS2_PLACEMENT_3D ( 'NONE', #30, #390, #571 ) ;
#36 = LINE ( 'NONE', #79, #416 ) ;
#37 = CARTESIAN_POINT ( 'NONE',  ( 74.00000000000000000, 50.45115354123182527, 35.00000000000000000 ) ) ;
#38 = EDGE_CURVE ( 'NONE', #162, #241, #497, .T. ) ;
#39 = CARTESIAN_POINT ( 'NONE',  ( 7.937920540475706943, 28.33082681384371071, 0.000000000000000000 ) ) ;
#40 = FACE_OUTER_BOUND ( 'NONE', #437, .T. ) ;
#41 = LINE ( 'NONE', #225, #564 ) ;
#42 = EDGE_CURVE ( 'NONE', #239, #469, #399, .T. ) ;
#43 = DIRECTION ( 'NONE',  ( -0.000000000000000000, -0.000000000000000000, -1.000000000000000000 ) ) ;
#44 = EDGE_LOOP ( 'NONE', ( #478, #378, #284, #424 ) ) ;
#45 = CARTESIAN_POINT ( 'NONE',  ( 60.00000000000000000, 48.75204909682174303, 28.42735698795846488 ) ) ;
#46 = LINE ( 'NONE', #395, #70 ) ;
#47 = EDGE_CURVE ( 'NONE', #305, #521, #412, .T. ) ;
#48 = ORIENTED_EDGE ( 'NONE', *, *, #376, .T. ) ;
#49 = CARTESIAN_POINT ( 'NONE',  ( 60.00000000000000000, 45.73003581059546718, 30.88795038542287230 ) ) ;
#50 = CARTESIAN_POINT ( 'NONE',  ( 66.99999999999998579, 7.000000000000000000, 35.00000000000000000 ) ) ;
#51 = DIRECTION ( 'NONE',  ( 0.2588190451025249028, -0.9659258262890670910, 0.000000000000000000 ) ) ;
#52 = LINE ( 'NONE', #100, #206 ) ;
#53 = AXIS2_PLACEMENT_3D ( 'NONE', #37, #320, #408 ) ;
#54 = DIRECTION ( 'NONE',  ( -0.000000000000000000, -0.000000000000000000, 1.000000000000000000 ) ) ;
#55 = AXIS2_PLACEMENT_3D ( 'NONE', #325, #181, #99 ) ;
#56 = FILL_AREA_STYLE_COLOUR ( '', #380 ) ;
#57 = LINE ( 'NONE', #195, #84 ) ;
#58 = ORIENTED_EDGE ( 'NONE', *, *, #187, .F. ) ;
#59 = PLANE ( 'NONE',  #242 ) ;
#60 = AXIS2_PLACEMENT_3D ( 'NONE', #520, #291, #477 ) ;
#61 = ADVANCED_BREP_SHAPE_REPRESENTATION ( 'office_building', ( #152, #303 ), #442 ) ;
#62 = ORIENTED_EDGE ( 'NONE', *, *, #253, .F. ) ;
#63 = DIRECTION ( 'NONE',  ( 0.9927156884694655625, 0.1204805455938629949, 6.938893903907226837E-18 ) ) ;
#64 = VECTOR ( 'NONE', #214, 999.9999999999998863 ) ;
#65 = EDGE_CURVE ( 'NONE', #215, #360, #46, .T. ) ;
#66 = ORIENTED_EDGE ( 'NONE', *, *, #289, .T. ) ;
#67 = DIRECTION ( 'NONE',  ( -1.000000000000000000, 0.000000000000000000, 0.000000000000000000 ) ) ;
#68 = ORIENTED_EDGE ( 'NONE', *, *, #280, .F. ) ;
#69 = CARTESIAN_POINT ( 'NONE',  ( 74.00000000000000000, -9.842959747974662735E-17, 0.000000000000000000 ) ) ;
#70 = VECTOR ( 'NONE', #500, 1000.000000000000000 ) ;
#71 = ORIENTED_EDGE ( 'NONE', *, *, #212, .F. ) ;
#72 = ADVANCED_FACE ( 'NONE', ( #40 ), #93, .F. ) ;
#73 = CARTESIAN_POINT ( 'NONE',  ( 74.00000000000000000, 14.00000000000000000, 0.000000000000000000 ) ) ;
#74 = AXIS2_PLACEMENT_3D ( 'NONE', #580, #455, #224 ) ;
#75 = ORIENTED_EDGE ( 'NONE', *, *, #38, .T. ) ;
#76 = DIRECTION ( 'NONE',  ( 0.2588190451025206285, -0.9659258262890683122, 0.000000000000000000 ) ) ;
#77 = ORIENTED_EDGE ( 'NONE', *, *, #432, .T. ) ;
#78 = SURFACE_SIDE_STYLE ('',( #118 ) ) ;
#79 = CARTESIAN_POINT ( 'NONE',  ( 0.6776576460286519721, 55.42649681222731317, 17.13075864884566357 ) ) ;
#80 = ORIENTED_EDGE ( 'NONE', *, *, #338, .T. ) ;
#81 = DIRECTION ( 'NONE',  ( 0.000000000000000000, 0.000000000000000000, 1.000000000000000000 ) ) ;
#82 = CARTESIAN_POINT ( 'NONE',  ( 60.00000000000000000, 45.73003581059546718, 0.000000000000000000 ) ) ;
#83 = EDGE_CURVE ( 'NONE', #250, #482, #168, .T. ) ;
#84 = VECTOR ( 'NONE', #51, 1000.000000000000227 ) ;
#85 = DIRECTION ( 'NONE',  ( 0.9927156884694655625, 0.1204805455938630088, 0.000000000000000000 ) ) ;
#86 = PLANE ( 'NONE',  #405 ) ;
#87 = EDGE_CURVE ( 'NONE', #459, #410, #89, .T. ) ;
#88 = DIRECTION ( 'NONE',  ( 0.2009168159960472710, -0.7498317653922162984, 0.6303846101062451357 ) ) ;
#89 = LINE ( 'NONE', #82, #401 ) ;
#90 = ORIENTED_EDGE ( 'NONE', *, *, #472, .T. ) ;
#91 = VECTOR ( 'NONE', #204, 1000.000000000000114 ) ;
#92 = DIRECTION ( 'NONE',  ( 0.000000000000000000, 0.000000000000000000, 1.000000000000000000 ) ) ;
#93 = PLANE ( 'NONE',  #348 ) ;
#94 = ADVANCED_FACE ( 'NONE', ( #125 ), #262, .F. ) ;
#95 = VERTEX_POINT ( 'NONE', #138 ) ;
#96 = DIRECTION ( 'NONE',  ( 0.7290908262671719209, 0.08848581880636918751, 0.6786728423351114925 ) ) ;
#97 = FACE_OUTER_BOUND ( 'NONE', #1, .T. ) ;
#98 = SURFACE_SIDE_STYLE ('',( #189 ) ) ;
#99 = DIRECTION ( 'NONE',  ( 0.9927156884694655625, 0.1204805455938628839, 0.000000000000000000 ) ) ;
#100 = CARTESIAN_POINT ( 'NONE',  ( 60.00000000000000000, 60.85348720318812354, 18.57408505164185897 ) ) ;
#101 = VECTOR ( 'NONE', #349, 1000.000000000000000 ) ;
#102 = DIRECTION ( 'NONE',  ( 0.2588190451025206285, -0.9659258262890683122, 0.000000000000000000 ) ) ;
#103 = EDGE_LOOP ( 'NONE', ( #290, #22, #543, #151 ) ) ;
#104 = DIRECTION ( 'NONE',  ( -0.5115622509368846771, -0.6903681096580114307, 0.5115622509368842330 ) ) ;
#105 = ADVANCED_FACE ( 'NONE', ( #271 ), #230, .F. ) ;
#106 = ORIENTED_EDGE ( 'NONE', *, *, #513, .T. ) ;
#107 = CARTESIAN_POINT ( 'NONE',  ( 0.000000000000000000, 0.000000000000000000, 35.00000000000000000 ) ) ;
#108 = VECTOR ( 'NONE', #63, 1000.000000000000114 ) ;
#109 = ORIENTED_EDGE ( 'NONE', *, *, #222, .T. ) ;
#110 = LINE ( 'NONE', #288, #183 ) ;
#111 = VECTOR ( 'NONE', #487, 1000.000000000000114 ) ;
#112 = ORIENTED_EDGE ( 'NONE', *, *, #509, .F. ) ;
#113 = CARTESIAN_POINT ( 'NONE',  ( 5.062363611953755616, 39.06255137114444409, 0.000000000000000000 ) ) ;
#114 = ORIENTED_EDGE ( 'NONE', *, *, #333, .T. ) ;
#115 = LINE ( 'NONE', #73, #268 ) ;
#116 = ORIENTED_EDGE ( 'NONE', *, *, #233, .F. ) ;
#117 = ORIENTED_EDGE ( 'NONE', *, *, #237, .T. ) ;
#118 = SURFACE_STYLE_FILL_AREA ( #486 ) ;
#119 = LINE ( 'NONE', #300, #111 ) ;
#120 = VERTEX_POINT ( 'NONE', #171 ) ;
#121 = UNCERTAINTY_MEASURE_WITH_UNIT (LENGTH_MEASURE( 1.000000000000000082E-05 ), #573, 'distance_accuracy_value', 'NONE');
#122 =( NAMED_UNIT ( * ) SI_UNIT ( $, .STERADIAN. ) SOLID_ANGLE_UNIT ( ) );
#123 = LINE ( 'NONE', #576, #101 ) ;
#124 = ADVANCED_FACE ( 'NONE', ( #351 ), #354, .T. ) ;
#125 = FACE_OUTER_BOUND ( 'NONE', #475, .T. ) ;
#126 = DIRECTION ( 'NONE',  ( 0.000000000000000000, 0.7071067811865474617, -0.7071067811865475727 ) ) ;
#127 = VECTOR ( 'NONE', #172, 1000.000000000000000 ) ;
#128 = DIRECTION ( 'NONE',  ( 0.000000000000000000, 1.000000000000000000, 0.000000000000000000 ) ) ;
#129 = ADVANCED_FACE ( 'NONE', ( #494 ), #86, .T. ) ;
#130 = DIRECTION ( 'NONE',  ( 0.2588190451025252914, -0.9659258262890669799, 0.000000000000000000 ) ) ;
#131 = DIRECTION ( 'NONE',  ( 0.1204805455938628422, -0.9927156884694656735, 0.000000000000000000 ) ) ;
#132 = EDGE_CURVE ( 'NONE', #431, #239, #420, .T. ) ;
#133 = EDGE_LOOP ( 'NONE', ( #149, #531, #197, #483 ) ) ;
#134 = FACE_OUTER_BOUND ( 'NONE', #145, .T. ) ;
#135 = ORIENTED_EDGE ( 'NONE', *, *, #143, .F. ) ;
#136 = VERTEX_POINT ( 'NONE', #185 ) ;
#137 = CARTESIAN_POINT ( 'NONE',  ( -1.147063394804269221, 33.25867365758346494, 35.00000000000000000 ) ) ;
#138 = CARTESIAN_POINT ( 'NONE',  ( 4.278120813265950950, 41.98938534131735878, 28.42735698795845778 ) ) ;
#139 = VECTOR ( 'NONE', #530, 1000.000000000000000 ) ;
#140 = CARTESIAN_POINT ( 'NONE',  ( 7.937920540475706943, 28.33082681384371071, 0.000000000000000000 ) ) ;
#141 = LINE ( 'NONE', #508, #510 ) ;
#142 = CARTESIAN_POINT ( 'NONE',  ( 74.00000000000000000, 0.000000000000000000, 28.00000000000000355 ) ) ;
#143 = EDGE_CURVE ( 'NONE', #553, #269, #141, .T. ) ;
#144 = LINE ( 'NONE', #552, #218 ) ;
#145 = EDGE_LOOP ( 'NONE', ( #159, #301, #286, #569 ) ) ;
#146 = PRESENTATION_LAYER_ASSIGNMENT (  '', '', ( #251 ) ) ;
#147 = EDGE_CURVE ( 'NONE', #410, #372, #52, .T. ) ;
#148 = LINE ( 'NONE', #544, #309 ) ;
#149 = ORIENTED_EDGE ( 'NONE', *, *, #248, .T. ) ;
#150 = DIRECTION ( 'NONE',  ( 0.000000000000000000, 0.000000000000000000, 1.000000000000000000 ) ) ;
#151 = ORIENTED_EDGE ( 'NONE', *, *, #132, .F. ) ;
#152 = MANIFOLD_SOLID_BREP ( 'Cut-Extrude8', #323 ) ;
#153 = LINE ( 'NONE', #296, #364 ) ;
#154 = ORIENTED_EDGE ( 'NONE', *, *, #222, .F. ) ;
#155 = VECTOR ( 'NONE', #397, 1000.000000000000114 ) ;
#156 = CARTESIAN_POINT ( 'NONE',  ( -13.33370075497512808, 49.76204867048581804, 28.00000000000000355 ) ) ;
#157 = PRODUCT_RELATED_PRODUCT_CATEGORY ( 'part', '', ( #293 ) ) ;
#158 = VECTOR ( 'NONE', #496, 999.9999999999998863 ) ;
#159 = ORIENTED_EDGE ( 'NONE', *, *, #423, .T. ) ;
#160 = DIRECTION ( 'NONE',  ( -0.7427285478300423849, 0.000000000000000000, -0.6695926405197987208 ) ) ;
#161 = VERTEX_POINT ( 'NONE', #238 ) ;
#162 = VERTEX_POINT ( 'NONE', #50 ) ;
#163 =( NAMED_UNIT ( * ) PLANE_ANGLE_UNIT ( ) SI_UNIT ( $, .RADIAN. ) );
#164 = CARTESIAN_POINT ( 'NONE',  ( 74.00000000000000000, 0.000000000000000000, 28.00000000000000355 ) ) ;
#165 = EDGE_LOOP ( 'NONE', ( #58, #375, #581, #471, #209, #68, #272, #357 ) ) ;
#166 = EDGE_CURVE ( 'NONE', #439, #516, #232, .T. ) ;
#167 = LINE ( 'NONE', #451, #562 ) ;
#168 = LINE ( 'NONE', #347, #453 ) ;
#169 = VECTOR ( 'NONE', #452, 1000.000000000000000 ) ;
#170 = CARTESIAN_POINT ( 'NONE',  ( 74.00000000000000000, 7.000000000000000000, 35.00000000000000000 ) ) ;
#171 = CARTESIAN_POINT ( 'NONE',  ( 7.937920540475706943, 28.33082681384371071, 35.00000000000000000 ) ) ;
#172 = DIRECTION ( 'NONE',  ( -0.000000000000000000, -0.000000000000000000, -1.000000000000000000 ) ) ;
#173 = EDGE_CURVE ( 'NONE', #318, #521, #258, .T. ) ;
#174 = CARTESIAN_POINT ( 'NONE',  ( 0.000000000000000000, 0.000000000000000000, 0.000000000000000000 ) ) ;
#175 = VECTOR ( 'NONE', #8, 1000.000000000000000 ) ;
#176 = DIRECTION ( 'NONE',  ( -1.000000000000000000, -0.000000000000000000, -0.000000000000000000 ) ) ;
#177 = ORIENTED_EDGE ( 'NONE', *, *, #257, .F. ) ;
#178 = PLANE ( 'NONE',  #418 ) ;
#179 = DIRECTION ( 'NONE',  ( 0.000000000000000000, 1.000000000000000000, 0.000000000000000000 ) ) ;
#180 = ORIENTED_EDGE ( 'NONE', *, *, #280, .T. ) ;
#181 = DIRECTION ( 'NONE',  ( 0.1204805455938628977, -0.9927156884694656735, 0.000000000000000000 ) ) ;
#182 = ORIENTED_EDGE ( 'NONE', *, *, #561, .T. ) ;
#183 = VECTOR ( 'NONE', #558, 1000.000000000000000 ) ;
#184 = FACE_OUTER_BOUND ( 'NONE', #503, .T. ) ;
#185 = CARTESIAN_POINT ( 'NONE',  ( 66.99999999999998579, 41.52931496384114496, 35.00000000000000000 ) ) ;
#186 = AXIS2_PLACEMENT_3D ( 'NONE', #277, #240, #92 ) ;
#187 = EDGE_CURVE ( 'NONE', #95, #370, #36, .T. ) ;
#188 = CARTESIAN_POINT ( 'NONE',  ( 60.00000000000000000, 14.00000000000000000, 0.000000000000000000 ) ) ;
#189 = SURFACE_STYLE_FILL_AREA ( #10 ) ;
#190 = DIRECTION ( 'NONE',  ( -0.2588190451025252914, 0.9659258262890669799, 0.000000000000000000 ) ) ;
#191 = SURFACE_STYLE_USAGE ( .BOTH. , #98 ) ;
#192 = EDGE_CURVE ( 'NONE', #269, #318, #123, .T. ) ;
#193 = VECTOR ( 'NONE', #219, 1000.000000000000000 ) ;
#194 = EDGE_LOOP ( 'NONE', ( #523, #31, #80, #109 ) ) ;
#195 = CARTESIAN_POINT ( 'NONE',  ( -6.089257057807127005, 51.70319150875474890, 35.00000000000000000 ) ) ;
#196 = VECTOR ( 'NONE', #17, 1000.000000000000000 ) ;
#197 = ORIENTED_EDGE ( 'NONE', *, *, #65, .T. ) ;
#198 = ADVANCED_FACE ( 'NONE', ( #574 ), #307, .F. ) ;
#199 = FACE_OUTER_BOUND ( 'NONE', #211, .T. ) ;
#200 = ORIENTED_EDGE ( 'NONE', *, *, #87, .T. ) ;
#201 = CARTESIAN_POINT ( 'NONE',  ( -10.30282141838523025, 40.21977507349698300, 28.42735698795848620 ) ) ;
#202 = ORIENTED_EDGE ( 'NONE', *, *, #147, .T. ) ;
#203 = EDGE_LOOP ( 'NONE', ( #572, #559, #363, #228, #480 ) ) ;
#204 = DIRECTION ( 'NONE',  ( 0.9927156884694655625, 0.1204805455938630088, 0.000000000000000000 ) ) ;
#205 = ORIENTED_EDGE ( 'NONE', *, *, #409, .T. ) ;
#206 = VECTOR ( 'NONE', #466, 1000.000000000000227 ) ;
#207 = PLANE ( 'NONE',  #526 ) ;
#208 = PRODUCT_DEFINITION_SHAPE ( 'NONE', 'NONE',  #263 ) ;
#209 = ORIENTED_EDGE ( 'NONE', *, *, #561, .F. ) ;
#210 = FACE_OUTER_BOUND ( 'NONE', #334, .T. ) ;
#211 = EDGE_LOOP ( 'NONE', ( #391, #205, #359, #449 ) ) ;
#212 = EDGE_CURVE ( 'NONE', #482, #318, #493, .T. ) ;
#213 = FILL_AREA_STYLE_COLOUR ( '', #317 ) ;
#214 = DIRECTION ( 'NONE',  ( -0.9927156884694656735, -0.1204805455938628284, 0.000000000000000000 ) ) ;
#215 = VERTEX_POINT ( 'NONE', #535 ) ;
#216 = LINE ( 'NONE', #343, #127 ) ;
#217 = DIRECTION ( 'NONE',  ( 0.000000000000000000, 0.000000000000000000, 1.000000000000000000 ) ) ;
#218 = VECTOR ( 'NONE', #504, 1000.000000000000000 ) ;
#219 = DIRECTION ( 'NONE',  ( -0.000000000000000000, -0.000000000000000000, -1.000000000000000000 ) ) ;
#220 = LINE ( 'NONE', #579, #392 ) ;
#221 = CARTESIAN_POINT ( 'NONE',  ( 60.00000000000000000, 14.00000000000000000, 35.00000000000000000 ) ) ;
#222 = EDGE_CURVE ( 'NONE', #120, #427, #216, .T. ) ;
#223 = DIRECTION ( 'NONE',  ( 0.2588190451025252914, -0.9659258262890669799, 0.000000000000000000 ) ) ;
#224 = DIRECTION ( 'NONE',  ( -0.7071067811865479058, 0.000000000000000000, 0.7071067811865472397 ) ) ;
#225 = CARTESIAN_POINT ( 'NONE',  ( 74.00000000000000000, 50.45115354123182527, 28.42735698795846488 ) ) ;
#226 = APPLICATION_PROTOCOL_DEFINITION ( 'draft international standard', 'automotive_design', 1998, #400 ) ;
#227 = PLANE ( 'NONE',  #21 ) ;
#228 = ORIENTED_EDGE ( 'NONE', *, *, #143, .T. ) ;
#229 = PLANE ( 'NONE',  #55 ) ;
#230 = PLANE ( 'NONE',  #53 ) ;
#231 = CARTESIAN_POINT ( 'NONE',  ( 7.937920540475706943, 28.33082681384371071, 35.00000000000000000 ) ) ;
#232 = LINE ( 'NONE', #414, #326 ) ;
#233 = EDGE_CURVE ( 'NONE', #250, #566, #167, .T. ) ;
#234 = DIRECTION ( 'NONE',  ( -1.000000000000000000, -0.000000000000000000, -0.000000000000000000 ) ) ;
#235 = VECTOR ( 'NONE', #460, 1000.000000000000000 ) ;
#236 = CARTESIAN_POINT ( 'NONE',  ( 0.000000000000000000, 0.000000000000000000, 0.000000000000000000 ) ) ;
#237 = EDGE_CURVE ( 'NONE', #566, #459, #266, .T. ) ;
#238 = CARTESIAN_POINT ( 'NONE',  ( 73.57264301204152446, 50.39928752997539618, 28.42735698795847910 ) ) ;
#239 = VERTEX_POINT ( 'NONE', #311 ) ;
#240 = DIRECTION ( 'NONE',  ( -1.000000000000000000, 0.000000000000000000, 0.000000000000000000 ) ) ;
#241 = VERTEX_POINT ( 'NONE', #260 ) ;
#242 = AXIS2_PLACEMENT_3D ( 'NONE', #156, #20, #160 ) ;
#243 = EDGE_LOOP ( 'NONE', ( #247, #292, #435, #114 ) ) ;
#244 = DIRECTION ( 'NONE',  ( 1.000000000000000000, 0.000000000000000000, -0.000000000000000000 ) ) ;
#245 = EDGE_LOOP ( 'NONE', ( #11, #339, #458, #557, #386 ) ) ;
#246 = CARTESIAN_POINT ( 'NONE',  ( -10.76192636560786831, 40.16405598376294961, 28.00000000000000711 ) ) ;
#247 = ORIENTED_EDGE ( 'NONE', *, *, #584, .F. ) ;
#248 = EDGE_CURVE ( 'NONE', #456, #427, #264, .T. ) ;
#249 = LINE ( 'NONE', #23, #519 ) ;
#250 = VERTEX_POINT ( 'NONE', #538 ) ;
#251 = STYLED_ITEM ( 'NONE', ( #275 ), #152 ) ;
#252 = DIRECTION ( 'NONE',  ( -0.000000000000000000, 1.000000000000000000, -0.000000000000000000 ) ) ;
#253 = EDGE_CURVE ( 'NONE', #427, #215, #402, .T. ) ;
#254 = ORIENTED_EDGE ( 'NONE', *, *, #362, .F. ) ;
#255 = CARTESIAN_POINT ( 'NONE',  ( 5.062363611953755616, 39.06255137114444409, 0.000000000000000000 ) ) ;
#256 = ORIENTED_EDGE ( 'NONE', *, *, #513, .F. ) ;
#257 = EDGE_CURVE ( 'NONE', #305, #162, #346, .T. ) ;
#258 = LINE ( 'NONE', #393, #352 ) ;
#259 = FACE_OUTER_BOUND ( 'NONE', #165, .T. ) ;
#260 = CARTESIAN_POINT ( 'NONE',  ( 5.888927006057741664, 6.999999999999990230, 35.00000000000000000 ) ) ;
#261 = VECTOR ( 'NONE', #223, 1000.000000000000227 ) ;
#262 = PLANE ( 'NONE',  #74 ) ;
#263 = PRODUCT_DEFINITION ( 'UNKNOWN', '', #387, #441 ) ;
#264 = LINE ( 'NONE', #454, #64 ) ;
#265 = DIRECTION ( 'NONE',  ( 1.000000000000000000, -0.000000000000000000, 0.000000000000000000 ) ) ;
#266 = LINE ( 'NONE', #255, #434 ) ;
#267 = DIRECTION ( 'NONE',  ( -0.000000000000000000, -0.000000000000000000, 1.000000000000000000 ) ) ;
#268 = VECTOR ( 'NONE', #560, 1000.000000000000000 ) ;
#269 = VERTEX_POINT ( 'NONE', #532 ) ;
#270 = CARTESIAN_POINT ( 'NONE',  ( 60.00000000000000000, 34.64932042776573695, 35.00000000000000000 ) ) ;
#271 = FACE_OUTER_BOUND ( 'NONE', #341, .T. ) ;
#272 = ORIENTED_EDGE ( 'NONE', *, *, #147, .F. ) ;
#273 = FACE_OUTER_BOUND ( 'NONE', #243, .T. ) ;
#274 = EDGE_CURVE ( 'NONE', #120, #431, #220, .T. ) ;
#275 = PRESENTATION_STYLE_ASSIGNMENT (( #191 ) ) ;
#276 = CARTESIAN_POINT ( 'NONE',  ( 11.77785401211548155, 14.00000000000000000, 35.00000000000000000 ) ) ;
#277 = CARTESIAN_POINT ( 'NONE',  ( 60.00000000000000000, 14.00000000000000000, 35.00000000000000000 ) ) ;
#278 = DIRECTION ( 'NONE',  ( 0.2588190451025249028, -0.9659258262890670910, 0.000000000000000000 ) ) ;
#279 =( GEOMETRIC_REPRESENTATION_CONTEXT ( 3 ) GLOBAL_UNCERTAINTY_ASSIGNED_CONTEXT ( ( #345 ) ) GLOBAL_UNIT_ASSIGNED_CONTEXT ( ( #551, #461, #463 ) ) REPRESENTATION_CONTEXT ( 'NONE', 'WORKASPACE' ) );
#280 = EDGE_CURVE ( 'NONE', #372, #161, #41, .T. ) ;
#281 = CARTESIAN_POINT ( 'NONE',  ( 74.00000000000000000, 50.45115354123182527, 28.00000000000000355 ) ) ;
#282 = ORIENTED_EDGE ( 'NONE', *, *, #472, .F. ) ;
#283 = FACE_OUTER_BOUND ( 'NONE', #203, .T. ) ;
#284 = ORIENTED_EDGE ( 'NONE', *, *, #132, .T. ) ;
#285 = DIRECTION ( 'NONE',  ( -0.000000000000000000, -0.000000000000000000, 1.000000000000000000 ) ) ;
#286 = ORIENTED_EDGE ( 'NONE', *, *, #87, .F. ) ;
#287 = AXIS2_PLACEMENT_3D ( 'NONE', #107, #330, #481 ) ;
#288 = CARTESIAN_POINT ( 'NONE',  ( 60.00000000000000000, 45.73003581059546718, 0.000000000000000000 ) ) ;
#289 = EDGE_CURVE ( 'NONE', #162, #136, #406, .T. ) ;
#290 = ORIENTED_EDGE ( 'NONE', *, *, #274, .F. ) ;
#291 = DIRECTION ( 'NONE',  ( 7.030685534267616239E-18, 1.000000000000000000, -0.000000000000000000 ) ) ;
#292 = ORIENTED_EDGE ( 'NONE', *, *, #19, .F. ) ;
#293 = PRODUCT ( 'office_building', 'office_building', '', ( #308 ) ) ;
#294 = VECTOR ( 'NONE', #176, 1000.000000000000000 ) ;
#295 = ADVANCED_FACE ( 'NONE', ( #582, #33 ), #178, .F. ) ;
#296 = CARTESIAN_POINT ( 'NONE',  ( 74.00000000000000000, 0.000000000000000000, 28.00000000000000355 ) ) ;
#297 = ORIENTED_EDGE ( 'NONE', *, *, #274, .T. ) ;
#298 = ADVANCED_FACE ( 'NONE', ( #134 ), #438, .F. ) ;
#299 = ORIENTED_EDGE ( 'NONE', *, *, #83, .F. ) ;
#300 = CARTESIAN_POINT ( 'NONE',  ( -15.36286077984322063, 44.06691116784373463, 24.79490708440213353 ) ) ;
#301 = ORIENTED_EDGE ( 'NONE', *, *, #468, .T. ) ;
#302 =( NAMED_UNIT ( * ) PLANE_ANGLE_UNIT ( ) SI_UNIT ( $, .RADIAN. ) );
#303 = AXIS2_PLACEMENT_3D ( 'NONE', #174, #217, #398 ) ;
#304 = CARTESIAN_POINT ( 'NONE',  ( 66.99999999999998579, 0.000000000000000000, 35.00000000000000000 ) ) ;
#305 = VERTEX_POINT ( 'NONE', #164 ) ;
#306 = AXIS2_PLACEMENT_3D ( 'NONE', #170, #126, #447 ) ;
#307 = PLANE ( 'NONE',  #306 ) ;
#308 = PRODUCT_CONTEXT ( 'NONE', #415, 'mechanical' ) ;
#309 = VECTOR ( 'NONE', #422, 1000.000000000000114 ) ;
#310 = DIRECTION ( 'NONE',  ( 0.000000000000000000, -0.000000000000000000, 1.000000000000000000 ) ) ;
#311 = CARTESIAN_POINT ( 'NONE',  ( 60.00000000000000000, 14.00000000000000000, 35.00000000000000000 ) ) ;
#312 = DIRECTION ( 'NONE',  ( 0.000000000000000000, 0.7754595868232845302, -0.6313972039879973686 ) ) ;
#313 = ORIENTED_EDGE ( 'NONE', *, *, #509, .T. ) ;
#314 = EDGE_CURVE ( 'NONE', #421, #528, #119, .T. ) ;
#315 = DIRECTION ( 'NONE',  ( 1.000000000000000000, -7.030685534267617780E-18, -0.000000000000000000 ) ) ;
#316 = CARTESIAN_POINT ( 'NONE',  ( 11.77785401211548155, 14.00000000000000000, 35.00000000000000000 ) ) ;
#317 = COLOUR_RGB ( '',0.7921568627450980005, 0.8196078431372548767, 0.9333333333333333481 ) ;
#318 = VERTEX_POINT ( 'NONE', #236 ) ;
#319 = DIRECTION ( 'NONE',  ( 0.9659258262890670910, 0.2588190451025253469, -0.000000000000000000 ) ) ;
#320 = DIRECTION ( 'NONE',  ( 0.1204805455938628977, -0.9927156884694656735, 0.000000000000000000 ) ) ;
#321 = LINE ( 'NONE', #499, #446 ) ;
#322 = CARTESIAN_POINT ( 'NONE',  ( 60.00000000000000000, 34.64932042776573695, 0.000000000000000000 ) ) ;
#323 = CLOSED_SHELL ( 'NONE', ( #105, #495, #295, #464, #527, #547, #403, #129, #407, #124, #355, #72, #298, #445, #198, #567, #94, #25 ) ) ;
#324 = DIRECTION ( 'NONE',  ( 0.9927156884694655625, 0.1204805455938628284, 0.000000000000000000 ) ) ;
#325 = CARTESIAN_POINT ( 'NONE',  ( 74.00000000000000000, 50.45115354123182527, 35.00000000000000000 ) ) ;
#326 = VECTOR ( 'NONE', #366, 1000.000000000000114 ) ;
#327 = ORIENTED_EDGE ( 'NONE', *, *, #362, .T. ) ;
#328 = CARTESIAN_POINT ( 'NONE',  ( 74.00000000000000000, 14.00000000000000000, 35.00000000000000000 ) ) ;
#329 = ORIENTED_EDGE ( 'NONE', *, *, #450, .T. ) ;
#330 = DIRECTION ( 'NONE',  ( 0.9659258262890672020, 0.2588190451025249583, -0.000000000000000000 ) ) ;
#331 = EDGE_LOOP ( 'NONE', ( #256, #501, #16, #313 ) ) ;
#332 = CARTESIAN_POINT ( 'NONE',  ( 0.000000000000000000, 0.000000000000000000, 35.00000000000000000 ) ) ;
#333 = EDGE_CURVE ( 'NONE', #469, #456, #12, .T. ) ;
#334 = EDGE_LOOP ( 'NONE', ( #525, #329, #489, #66 ) ) ;
#335 = AXIS2_PLACEMENT_3D ( 'NONE', #511, #467, #102 ) ;
#336 = CARTESIAN_POINT ( 'NONE',  ( 23.69164715565607437, 28.16158697823847135, 56.16158697823847490 ) ) ;
#337 = ORIENTED_EDGE ( 'NONE', *, *, #409, .F. ) ;
#338 = EDGE_CURVE ( 'NONE', #469, #120, #550, .T. ) ;
#339 = ORIENTED_EDGE ( 'NONE', *, *, #396, .T. ) ;
#340 = AXIS2_PLACEMENT_3D ( 'NONE', #328, #67, #377 ) ;
#341 = EDGE_LOOP ( 'NONE', ( #327, #180, #48, #106, #29 ) ) ;
#342 = SURFACE_STYLE_USAGE ( .BOTH. , #78 ) ;
#343 = CARTESIAN_POINT ( 'NONE',  ( 7.937920540475706943, 28.33082681384371071, 35.00000000000000000 ) ) ;
#344 = ORIENTED_EDGE ( 'NONE', *, *, #187, .T. ) ;
#345 = UNCERTAINTY_MEASURE_WITH_UNIT (LENGTH_MEASURE( 1.000000000000000082E-05 ), #551, 'distance_accuracy_value', 'NONE');
#346 = LINE ( 'NONE', #353, #158 ) ;
#347 = CARTESIAN_POINT ( 'NONE',  ( 74.00000000000000000, 50.45115354123182527, 0.000000000000000000 ) ) ;
#348 = AXIS2_PLACEMENT_3D ( 'NONE', #575, #265, #3 ) ;
#349 = DIRECTION ( 'NONE',  ( -0.000000000000000000, -0.000000000000000000, -1.000000000000000000 ) ) ;
#350 = EDGE_CURVE ( 'NONE', #553, #528, #548, .T. ) ;
#351 = FACE_OUTER_BOUND ( 'NONE', #44, .T. ) ;
#352 = VECTOR ( 'NONE', #315, 1000.000000000000000 ) ;
#353 = CARTESIAN_POINT ( 'NONE',  ( 69.33333333333332860, 4.666666666666664298, 32.66666666666667140 ) ) ;
#354 = PLANE ( 'NONE',  #24 ) ;
#355 = ADVANCED_FACE ( 'NONE', ( #273 ), #419, .T. ) ;
#356 = EDGE_LOOP ( 'NONE', ( #117, #90, #563, #112, #542, #71, #299, #485 ) ) ;
#357 = ORIENTED_EDGE ( 'NONE', *, *, #468, .F. ) ;
#358 = CARTESIAN_POINT ( 'NONE',  ( 0.000000000000000000, 0.000000000000000000, 0.000000000000000000 ) ) ;
#359 = ORIENTED_EDGE ( 'NONE', *, *, #192, .T. ) ;
#360 = VERTEX_POINT ( 'NONE', #188 ) ;
#361 = PLANE ( 'NONE',  #476 ) ;
#362 = EDGE_CURVE ( 'NONE', #516, #372, #144, .T. ) ;
#363 = ORIENTED_EDGE ( 'NONE', *, *, #350, .F. ) ;
#364 = VECTOR ( 'NONE', #252, 1000.000000000000000 ) ;
#365 = CARTESIAN_POINT ( 'NONE',  ( 38.42262467578385099, 46.13331950310173823, 73.78334804339681341 ) ) ;
#366 = DIRECTION ( 'NONE',  ( -0.9927156884694655625, -0.1204805455938628977, 0.000000000000000000 ) ) ;
#367 = VECTOR ( 'NONE', #96, 1000.000000000000000 ) ;
#368 = DIRECTION ( 'NONE',  ( 0.9927156884694655625, 0.1204805455938628977, 9.882197983634049817E-17 ) ) ;
#369 = DIRECTION ( 'NONE',  ( -0.000000000000000000, -0.000000000000000000, -1.000000000000000000 ) ) ;
#370 = VERTEX_POINT ( 'NONE', #411 ) ;
#371 = CARTESIAN_POINT ( 'NONE',  ( 60.00000000000000000, 45.73003581059546718, 0.000000000000000000 ) ) ;
#372 = VERTEX_POINT ( 'NONE', #45 ) ;
#373 = ORIENTED_EDGE ( 'NONE', *, *, #423, .F. ) ;
#374 =( LENGTH_UNIT ( ) NAMED_UNIT ( * ) SI_UNIT ( .MILLI., .METRE. ) );
#375 = ORIENTED_EDGE ( 'NONE', *, *, #396, .F. ) ;
#376 = EDGE_CURVE ( 'NONE', #161, #381, #148, .T. ) ;
#377 = DIRECTION ( 'NONE',  ( 0.000000000000000000, 0.000000000000000000, 1.000000000000000000 ) ) ;
#378 = ORIENTED_EDGE ( 'NONE', *, *, #28, .F. ) ;
#379 = FACE_BOUND ( 'NONE', #103, .T. ) ;
#380 = COLOUR_RGB ( '',0.7921568627450980005, 0.8196078431372548767, 0.9333333333333333481 ) ;
#381 = VERTEX_POINT ( 'NONE', #281 ) ;
#382 = VECTOR ( 'NONE', #54, 1000.000000000000000 ) ;
#383 = LINE ( 'NONE', #426, #91 ) ;
#384 = ORIENTED_EDGE ( 'NONE', *, *, #257, .T. ) ;
#385 = LINE ( 'NONE', #336, #196 ) ;
#386 = ORIENTED_EDGE ( 'NONE', *, *, #432, .F. ) ;
#387 = PRODUCT_DEFINITION_FORMATION_WITH_SPECIFIED_SOURCE ( 'ANY', '', #293, .NOT_KNOWN. ) ;
#388 = UNCERTAINTY_MEASURE_WITH_UNIT (LENGTH_MEASURE( 1.000000000000000082E-05 ), #374, 'distance_accuracy_value', 'NONE');
#389 = PRESENTATION_LAYER_ASSIGNMENT (  '', '', ( #545 ) ) ;
#390 = DIRECTION ( 'NONE',  ( 0.1204805455938630226, -0.9927156884694656735, 0.000000000000000000 ) ) ;
#391 = ORIENTED_EDGE ( 'NONE', *, *, #47, .F. ) ;
#392 = VECTOR ( 'NONE', #130, 1000.000000000000227 ) ;
#393 = CARTESIAN_POINT ( 'NONE',  ( 74.00000000000000000, -9.842959747974662735E-17, 0.000000000000000000 ) ) ;
#394 = APPLICATION_PROTOCOL_DEFINITION ( 'draft international standard', 'automotive_design', 1998, #415 ) ;
#395 = CARTESIAN_POINT ( 'NONE',  ( 11.77785401211548155, 14.00000000000000000, 0.000000000000000000 ) ) ;
#396 = EDGE_CURVE ( 'NONE', #528, #95, #321, .T. ) ;
#397 = DIRECTION ( 'NONE',  ( 0.2588190451025249583, -0.9659258262890670910, -0.000000000000000000 ) ) ;
#398 = DIRECTION ( 'NONE',  ( 1.000000000000000000, 0.000000000000000000, 0.000000000000000000 ) ) ;
#399 = LINE ( 'NONE', #577, #506 ) ;
#400 = APPLICATION_CONTEXT ( 'automotive_design' ) ;
#401 = VECTOR ( 'NONE', #267, 1000.000000000000000 ) ;
#402 = LINE ( 'NONE', #39, #261 ) ;
#403 = ADVANCED_FACE ( 'NONE', ( #457 ), #229, .F. ) ;
#404 = LINE ( 'NONE', #316, #169 ) ;
#405 = AXIS2_PLACEMENT_3D ( 'NONE', #539, #131, #324 ) ;
#406 = LINE ( 'NONE', #304, #139 ) ;
#407 = ADVANCED_FACE ( 'NONE', ( #97 ), #361, .T. ) ;
#408 = DIRECTION ( 'NONE',  ( 0.9927156884694655625, 0.1204805455938628839, 0.000000000000000000 ) ) ;
#409 = EDGE_CURVE ( 'NONE', #305, #269, #9, .T. ) ;
#410 = VERTEX_POINT ( 'NONE', #49 ) ;
#411 = CARTESIAN_POINT ( 'NONE',  ( 5.062363611953755616, 39.06255137114444409, 30.88795038542286875 ) ) ;
#412 = LINE ( 'NONE', #34, #193 ) ;
#413 = LINE ( 'NONE', #4, #549 ) ;
#414 = CARTESIAN_POINT ( 'NONE',  ( 74.00000000000000000, 50.45115354123182527, 0.000000000000000000 ) ) ;
#415 = APPLICATION_CONTEXT ( 'automotive_design' ) ;
#416 = VECTOR ( 'NONE', #88, 1000.000000000000000 ) ;
#417 = LINE ( 'NONE', #502, #382 ) ;
#418 = AXIS2_PLACEMENT_3D ( 'NONE', #358, #81, #541 ) ;
#419 = PLANE ( 'NONE',  #186 ) ;
#420 = LINE ( 'NONE', #5, #175 ) ;
#421 = VERTEX_POINT ( 'NONE', #137 ) ;
#422 = DIRECTION ( 'NONE',  ( 0.7045172668505890190, 0.08550345851924837093, -0.7045172668505883529 ) ) ;
#423 = EDGE_CURVE ( 'NONE', #566, #370, #417, .T. ) ;
#424 = ORIENTED_EDGE ( 'NONE', *, *, #19, .T. ) ;
#425 = VECTOR ( 'NONE', #285, 1000.000000000000000 ) ;
#426 = CARTESIAN_POINT ( 'NONE',  ( -3.994485012746033181, 32.91309746285816118, 35.00000000000000000 ) ) ;
#427 = VERTEX_POINT ( 'NONE', #140 ) ;
#428 = DIRECTION ( 'NONE',  ( -0.000000000000000000, -0.000000000000000000, -1.000000000000000000 ) ) ;
#429 = EDGE_LOOP ( 'NONE', ( #337, #384, #75, #498 ) ) ;
#430 = CARTESIAN_POINT ( 'NONE',  ( 4.278120813265943845, 41.98938534131736589, 0.000000000000000000 ) ) ;
#431 = VERTEX_POINT ( 'NONE', #276 ) ;
#432 = EDGE_CURVE ( 'NONE', #553, #482, #413, .T. ) ;
#433 = FACE_OUTER_BOUND ( 'NONE', #331, .T. ) ;
#434 = VECTOR ( 'NONE', #85, 1000.000000000000114 ) ;
#435 = ORIENTED_EDGE ( 'NONE', *, *, #42, .T. ) ;
#436 = PLANE ( 'NONE',  #340 ) ;
#437 = EDGE_LOOP ( 'NONE', ( #200, #202, #254, #282 ) ) ;
#438 = PLANE ( 'NONE',  #35 ) ;
#439 = VERTEX_POINT ( 'NONE', #6 ) ;
#440 =( GEOMETRIC_REPRESENTATION_CONTEXT ( 3 ) GLOBAL_UNCERTAINTY_ASSIGNED_CONTEXT ( ( #121 ) ) GLOBAL_UNIT_ASSIGNED_CONTEXT ( ( #573, #163, #122 ) ) REPRESENTATION_CONTEXT ( 'NONE', 'WORKASPACE' ) );
#441 = PRODUCT_DEFINITION_CONTEXT ( 'detailed design', #400, 'design' ) ;
#442 =( GEOMETRIC_REPRESENTATION_CONTEXT ( 3 ) GLOBAL_UNCERTAINTY_ASSIGNED_CONTEXT ( ( #388 ) ) GLOBAL_UNIT_ASSIGNED_CONTEXT ( ( #374, #302, #484 ) ) REPRESENTATION_CONTEXT ( 'NONE', 'WORKASPACE' ) );
#443 = DIRECTION ( 'NONE',  ( 0.9927156884694655625, 0.1204805455938628977, 9.882197983634049817E-17 ) ) ;
#444 = CARTESIAN_POINT ( 'NONE',  ( -14.49025686576749017, 30.72008149584762293, 35.74843462243734393 ) ) ;
#445 = ADVANCED_FACE ( 'NONE', ( #184 ), #462, .F. ) ;
#446 = VECTOR ( 'NONE', #368, 1000.000000000000114 ) ;
#447 = DIRECTION ( 'NONE',  ( 0.000000000000000000, 0.7071067811865475727, 0.7071067811865474617 ) ) ;
#448 = SHAPE_DEFINITION_REPRESENTATION ( #208, #61 ) ;
#449 = ORIENTED_EDGE ( 'NONE', *, *, #173, .T. ) ;
#450 = EDGE_CURVE ( 'NONE', #421, #241, #57, .T. ) ;
#451 = CARTESIAN_POINT ( 'NONE',  ( 4.278120813265943845, 41.98938534131736589, 0.000000000000000000 ) ) ;
#452 = DIRECTION ( 'NONE',  ( -0.000000000000000000, -0.000000000000000000, -1.000000000000000000 ) ) ;
#453 = VECTOR ( 'NONE', #533, 1000.000000000000114 ) ;
#454 = CARTESIAN_POINT ( 'NONE',  ( 60.00000000000000000, 34.64932042776573695, 0.000000000000000000 ) ) ;
#455 = DIRECTION ( 'NONE',  ( -0.7071067811865472397, 0.000000000000000000, -0.7071067811865479058 ) ) ;
#456 = VERTEX_POINT ( 'NONE', #322 ) ;
#457 = FACE_OUTER_BOUND ( 'NONE', #245, .T. ) ;
#458 = ORIENTED_EDGE ( 'NONE', *, *, #488, .F. ) ;
#459 = VERTEX_POINT ( 'NONE', #371 ) ;
#460 = DIRECTION ( 'NONE',  ( -0.000000000000000000, -0.000000000000000000, -1.000000000000000000 ) ) ;
#461 =( NAMED_UNIT ( * ) PLANE_ANGLE_UNIT ( ) SI_UNIT ( $, .RADIAN. ) );
#462 = PLANE ( 'NONE',  #335 ) ;
#463 =( NAMED_UNIT ( * ) SI_UNIT ( $, .STERADIAN. ) SOLID_ANGLE_UNIT ( ) );
#464 = ADVANCED_FACE ( 'NONE', ( #507 ), #554, .F. ) ;
#465 = CARTESIAN_POINT ( 'NONE',  ( 60.00000000000000000, 34.64932042776573695, 35.00000000000000000 ) ) ;
#466 = DIRECTION ( 'NONE',  ( 0.000000000000000000, 0.7754595868232845302, -0.6313972039879973686 ) ) ;
#467 = DIRECTION ( 'NONE',  ( -0.9659258262890683122, -0.2588190451025206285, 0.000000000000000000 ) ) ;
#468 = EDGE_CURVE ( 'NONE', #370, #410, #470, .T. ) ;
#469 = VERTEX_POINT ( 'NONE', #474 ) ;
#470 = LINE ( 'NONE', #556, #108 ) ;
#471 = ORIENTED_EDGE ( 'NONE', *, *, #570, .T. ) ;
#472 = EDGE_CURVE ( 'NONE', #459, #516, #110, .T. ) ;
#473 = MECHANICAL_DESIGN_GEOMETRIC_PRESENTATION_REPRESENTATION (  '', ( #545 ), #440 ) ;
#474 = CARTESIAN_POINT ( 'NONE',  ( 60.00000000000000000, 34.64932042776573695, 35.00000000000000000 ) ) ;
#475 = EDGE_LOOP ( 'NONE', ( #534, #182, #540, #177, #26 ) ) ;
#476 = AXIS2_PLACEMENT_3D ( 'NONE', #231, #319, #190 ) ;
#477 = DIRECTION ( 'NONE',  ( -1.000000000000000000, 7.030685534267616239E-18, 0.000000000000000000 ) ) ;
#478 = ORIENTED_EDGE ( 'NONE', *, *, #65, .F. ) ;
#479 = CARTESIAN_POINT ( 'NONE',  ( 74.00000000000000000, 50.45115354123182527, 35.00000000000000000 ) ) ;
#480 = ORIENTED_EDGE ( 'NONE', *, *, #505, .F. ) ;
#481 = DIRECTION ( 'NONE',  ( -0.2588190451025249028, 0.9659258262890670910, 0.000000000000000000 ) ) ;
#482 = VERTEX_POINT ( 'NONE', #27 ) ;
#483 = ORIENTED_EDGE ( 'NONE', *, *, #584, .T. ) ;
#484 =( NAMED_UNIT ( * ) SI_UNIT ( $, .STERADIAN. ) SOLID_ANGLE_UNIT ( ) );
#485 = ORIENTED_EDGE ( 'NONE', *, *, #233, .T. ) ;
#486 = FILL_AREA_STYLE ('',( #213 ) ) ;
#487 = DIRECTION ( 'NONE',  ( -0.6911542088034234865, 0.5254829287891509271, -0.4961587963590788908 ) ) ;
#488 = EDGE_CURVE ( 'NONE', #250, #95, #15, .T. ) ;
#489 = ORIENTED_EDGE ( 'NONE', *, *, #38, .F. ) ;
#490 = CARTESIAN_POINT ( 'NONE',  ( 0.000000000000000000, 0.000000000000000000, 0.000000000000000000 ) ) ;
#491 = DIRECTION ( 'NONE',  ( 0.07640527185357333384, -0.6295515319668363308, -0.7731927980983728244 ) ) ;
#492 = VECTOR ( 'NONE', #234, 1000.000000000000000 ) ;
#493 = LINE ( 'NONE', #490, #155 ) ;
#494 = FACE_OUTER_BOUND ( 'NONE', #194, .T. ) ;
#495 = ADVANCED_FACE ( 'NONE', ( #210, #379 ), #207, .T. ) ;
#496 = DIRECTION ( 'NONE',  ( -0.5773502691896260641, 0.5773502691896256200, 0.5773502691896256200 ) ) ;
#497 = LINE ( 'NONE', #546, #294 ) ;
#498 = ORIENTED_EDGE ( 'NONE', *, *, #505, .T. ) ;
#499 = CARTESIAN_POINT ( 'NONE',  ( 74.00000000000000000, 50.45115354123182527, 28.42735698795846488 ) ) ;
#500 = DIRECTION ( 'NONE',  ( 1.000000000000000000, 0.000000000000000000, 0.000000000000000000 ) ) ;
#501 = ORIENTED_EDGE ( 'NONE', *, *, #515, .F. ) ;
#502 = CARTESIAN_POINT ( 'NONE',  ( 5.062363611953755616, 39.06255137114444409, 0.000000000000000000 ) ) ;
#503 = EDGE_LOOP ( 'NONE', ( #512, #344, #373, #116 ) ) ;
#504 = DIRECTION ( 'NONE',  ( -0.000000000000000000, -0.000000000000000000, 1.000000000000000000 ) ) ;
#505 = EDGE_CURVE ( 'NONE', #241, #269, #385, .T. ) ;
#506 = VECTOR ( 'NONE', #179, 1000.000000000000000 ) ;
#507 = FACE_OUTER_BOUND ( 'NONE', #14, .T. ) ;
#508 = CARTESIAN_POINT ( 'NONE',  ( -13.33370075497512808, 49.76204867048581804, 28.00000000000000355 ) ) ;
#509 = EDGE_CURVE ( 'NONE', #521, #439, #115, .T. ) ;
#510 = VECTOR ( 'NONE', #278, 1000.000000000000227 ) ;
#511 = CARTESIAN_POINT ( 'NONE',  ( 4.278120813265943845, 41.98938534131736589, 0.000000000000000000 ) ) ;
#512 = ORIENTED_EDGE ( 'NONE', *, *, #488, .T. ) ;
#513 = EDGE_CURVE ( 'NONE', #381, #439, #524, .T. ) ;
#514 = LINE ( 'NONE', #522, #32 ) ;
#515 = EDGE_CURVE ( 'NONE', #305, #381, #153, .T. ) ;
#516 = VERTEX_POINT ( 'NONE', #517 ) ;
#517 = CARTESIAN_POINT ( 'NONE',  ( 60.00000000000000000, 48.75204909682173593, 0.000000000000000000 ) ) ;
#518 = ORIENTED_EDGE ( 'NONE', *, *, #28, .T. ) ;
#519 = VECTOR ( 'NONE', #565, 1000.000000000000000 ) ;
#520 = CARTESIAN_POINT ( 'NONE',  ( 74.00000000000000000, -9.842959747974662735E-17, 35.00000000000000000 ) ) ;
#521 = VERTEX_POINT ( 'NONE', #69 ) ;
#522 = CARTESIAN_POINT ( 'NONE',  ( 55.99699009361172841, 26.68043364840016096, 46.00300990638825738 ) ) ;
#523 = ORIENTED_EDGE ( 'NONE', *, *, #248, .F. ) ;
#524 = LINE ( 'NONE', #479, #13 ) ;
#525 = ORIENTED_EDGE ( 'NONE', *, *, #570, .F. ) ;
#526 = AXIS2_PLACEMENT_3D ( 'NONE', #332, #150, #244 ) ;
#527 = ADVANCED_FACE ( 'NONE', ( #199 ), #568, .F. ) ;
#528 = VERTEX_POINT ( 'NONE', #201 ) ;
#529 = PRESENTATION_STYLE_ASSIGNMENT (( #342 ) ) ;
#530 = DIRECTION ( 'NONE',  ( -0.000000000000000000, 1.000000000000000000, -0.000000000000000000 ) ) ;
#531 = ORIENTED_EDGE ( 'NONE', *, *, #253, .T. ) ;
#532 = CARTESIAN_POINT ( 'NONE',  ( 0.000000000000000000, 0.000000000000000000, 28.00000000000000355 ) ) ;
#533 = DIRECTION ( 'NONE',  ( -0.9927156884694655625, -0.1204805455938628977, 0.000000000000000000 ) ) ;
#534 = ORIENTED_EDGE ( 'NONE', *, *, #376, .F. ) ;
#535 = CARTESIAN_POINT ( 'NONE',  ( 11.77785401211548155, 14.00000000000000000, 0.000000000000000000 ) ) ;
#536 = CARTESIAN_POINT ( 'NONE',  ( 11.77785401211548155, 14.00000000000000000, 35.00000000000000000 ) ) ;
#537 = MECHANICAL_DESIGN_GEOMETRIC_PRESENTATION_REPRESENTATION (  '', ( #251 ), #279 ) ;
#538 = CARTESIAN_POINT ( 'NONE',  ( 4.278120813265950950, 41.98938534131735878, 0.000000000000000000 ) ) ;
#539 = CARTESIAN_POINT ( 'NONE',  ( 60.00000000000000000, 34.64932042776573695, 35.00000000000000000 ) ) ;
#540 = ORIENTED_EDGE ( 'NONE', *, *, #289, .F. ) ;
#541 = DIRECTION ( 'NONE',  ( 1.000000000000000000, 0.000000000000000000, -0.000000000000000000 ) ) ;
#542 = ORIENTED_EDGE ( 'NONE', *, *, #173, .F. ) ;
#543 = ORIENTED_EDGE ( 'NONE', *, *, #42, .F. ) ;
#544 = CARTESIAN_POINT ( 'NONE',  ( 70.52558794496563621, 50.02948290091605088, 31.47441205503436734 ) ) ;
#545 = STYLED_ITEM ( 'NONE', ( #529 ), #61 ) ;
#546 = CARTESIAN_POINT ( 'NONE',  ( 74.00000000000000000, 7.000000000000000000, 35.00000000000000000 ) ) ;
#547 = ADVANCED_FACE ( 'NONE', ( #433 ), #436, .F. ) ;
#548 = LINE ( 'NONE', #365, #367 ) ;
#549 = VECTOR ( 'NONE', #369, 1000.000000000000000 ) ;
#550 = LINE ( 'NONE', #465, #7 ) ;
#551 =( LENGTH_UNIT ( ) NAMED_UNIT ( * ) SI_UNIT ( .MILLI., .METRE. ) );
#552 = CARTESIAN_POINT ( 'NONE',  ( 60.00000000000000000, 48.75204909682173593, 0.000000000000000000 ) ) ;
#553 = VERTEX_POINT ( 'NONE', #246 ) ;
#554 = PLANE ( 'NONE',  #287 ) ;
#555 = ORIENTED_EDGE ( 'NONE', *, *, #192, .F. ) ;
#556 = CARTESIAN_POINT ( 'NONE',  ( 5.062363611953755616, 39.06255137114444409, 30.88795038542287230 ) ) ;
#557 = ORIENTED_EDGE ( 'NONE', *, *, #83, .T. ) ;
#558 = DIRECTION ( 'NONE',  ( 0.000000000000000000, 1.000000000000000000, 0.000000000000000000 ) ) ;
#559 = ORIENTED_EDGE ( 'NONE', *, *, #314, .T. ) ;
#560 = DIRECTION ( 'NONE',  ( 0.000000000000000000, 1.000000000000000000, 0.000000000000000000 ) ) ;
#561 = EDGE_CURVE ( 'NONE', #161, #136, #514, .T. ) ;
#562 = VECTOR ( 'NONE', #76, 1000.000000000000114 ) ;
#563 = ORIENTED_EDGE ( 'NONE', *, *, #166, .F. ) ;
#564 = VECTOR ( 'NONE', #443, 1000.000000000000114 ) ;
#565 = DIRECTION ( 'NONE',  ( 0.000000000000000000, 1.000000000000000000, 0.000000000000000000 ) ) ;
#566 = VERTEX_POINT ( 'NONE', #113 ) ;
#567 = ADVANCED_FACE ( 'NONE', ( #283 ), #59, .F. ) ;
#568 = PLANE ( 'NONE',  #60 ) ;
#569 = ORIENTED_EDGE ( 'NONE', *, *, #237, .F. ) ;
#570 = EDGE_CURVE ( 'NONE', #421, #136, #383, .T. ) ;
#571 = DIRECTION ( 'NONE',  ( 0.9927156884694655625, 0.1204805455938630088, 0.000000000000000000 ) ) ;
#572 = ORIENTED_EDGE ( 'NONE', *, *, #450, .F. ) ;
#573 =( LENGTH_UNIT ( ) NAMED_UNIT ( * ) SI_UNIT ( .MILLI., .METRE. ) );
#574 = FACE_OUTER_BOUND ( 'NONE', #429, .T. ) ;
#575 = CARTESIAN_POINT ( 'NONE',  ( 60.00000000000000000, 45.73003581059546718, 0.000000000000000000 ) ) ;
#576 = CARTESIAN_POINT ( 'NONE',  ( 0.000000000000000000, 0.000000000000000000, 35.00000000000000000 ) ) ;
#577 = CARTESIAN_POINT ( 'NONE',  ( 60.00000000000000000, 14.00000000000000000, 35.00000000000000000 ) ) ;
#578 = VECTOR ( 'NONE', #43, 1000.000000000000000 ) ;
#579 = CARTESIAN_POINT ( 'NONE',  ( 7.937920540475706943, 28.33082681384371071, 35.00000000000000000 ) ) ;
#580 = CARTESIAN_POINT ( 'NONE',  ( 74.00000000000000000, 0.000000000000000000, 28.00000000000000355 ) ) ;
#581 = ORIENTED_EDGE ( 'NONE', *, *, #314, .F. ) ;
#582 = FACE_OUTER_BOUND ( 'NONE', #356, .T. ) ;
#583 = LINE ( 'NONE', #221, #578 ) ;
#584 = EDGE_CURVE ( 'NONE', #360, #456, #249, .T. ) ;
ENDSEC;
END-ISO-10303-21;
